<?xml version="1.0" standalone="no"?>
<!DOCTYPE svg PUBLIC "-//W3C//DTD SVG 20010904//EN"
 "http://www.w3.org/TR/2001/REC-SVG-20010904/DTD/svg10.dtd">
<svg version="1.0" xmlns="http://www.w3.org/2000/svg"
 width="225.000000pt" height="225.000000pt" viewBox="0 0 225.000000 225.000000"
 preserveAspectRatio="xMidYMid meet">

<g transform="translate(0.000000,225.000000) scale(0.100000,-0.100000)"
fill="#000000" stroke="none">
<path d="M643 2236 c-43 -20 -63 -62 -63 -135 0 -97 71 -268 166 -404 19 -26
34 -50 34 -53 0 -4 -30 -38 -66 -76 -131 -140 -260 -336 -328 -500 -102 -247
-103 -486 -1 -693 103 -211 303 -332 608 -367 97 -11 252 -6 352 12 245 44
438 177 524 361 56 118 75 224 68 368 -7 151 -30 232 -117 406 -80 160 -163
281 -281 409 -83 88 -83 88 -66 115 89 145 136 250 158 359 11 55 11 67 -2 90
-22 41 -61 50 -117 28 -141 -54 -206 -69 -317 -70 -132 -1 -215 21 -315 84
-121 76 -179 92 -237 66z m170 -219 c92 -56 206 -89 327 -94 93 -5 200 5 269
23 21 6 23 5 16 -17 -16 -52 -89 -163 -142 -216 -61 -61 -139 -103 -192 -103
-46 0 -96 36 -157 113 -59 74 -92 124 -129 197 -27 54 -57 130 -51 130 2 0 29
-15 59 -33z m366 -653 c15 -19 21 -41 21 -79 0 -49 2 -53 28 -60 47 -11 111
-54 127 -85 26 -51 -9 -101 -83 -116 -25 -5 -41 -1 -70 19 -47 32 -75 40 -112
32 -31 -7 -49 -40 -32 -57 6 -6 61 -23 123 -39 137 -35 178 -60 213 -130 67
-136 -6 -270 -175 -322 -13 -4 -18 -22 -21 -82 -3 -66 -7 -80 -27 -96 -32 -26
-67 -24 -96 6 -22 21 -25 33 -25 93 l0 68 -50 13 c-59 15 -123 59 -150 104
-26 41 -25 60 3 92 17 20 34 27 78 32 53 5 58 4 90 -26 38 -36 59 -44 119 -39
52 4 74 28 48 54 -8 9 -58 27 -109 41 -181 48 -239 102 -239 224 0 57 16 101
53 145 28 34 103 74 137 74 18 0 20 7 20 58 0 45 5 63 20 80 30 32 82 30 109
-4z"/>
</g>
</svg>
